<svg width="32" height="18" viewBox="0 0 32 18" fill="none" xmlns="http://www.w3.org/2000/svg">
<path d="M27.7333 18H4.26667C3.97212 18 3.73334 17.7742 3.73334 17.4957C3.73334 17.2173 3.97212 16.9915 4.26667 16.9915H27.7333C29.4677 16.9915 30.9333 14.2206 30.9333 10.9404C30.9333 7.66027 29.4677 4.88939 27.7333 4.88939H19.7936C19.6186 4.88929 19.4547 4.80797 19.3552 4.67182C19.2557 4.53566 19.2331 4.36199 19.2949 4.20714L20.1595 2.03885L18.7067 1.00866L14.5259 4.74972C14.4269 4.83835 14.2958 4.88779 14.1595 4.88788H4.26667C3.97212 4.88788 3.73334 4.66212 3.73334 4.38363C3.73334 4.10514 3.97212 3.87937 4.26667 3.87937H13.9467L17.9733 0.275974C18.3509 -0.0617886 18.9309 -0.0930971 19.3467 0.201849L20.8 1.23305C21.1781 1.50343 21.3236 1.97643 21.1579 2.39636L20.5653 3.88089H27.7333C30.1259 3.88089 32 6.98154 32 10.9404C32 14.8993 30.1259 18 27.7333 18Z" fill="#B6B6B6"/>
<path fill-rule="evenodd" clip-rule="evenodd" d="M0 10.9404C0 14.8993 1.87413 18 4.26667 18C6.6592 18 8.53333 14.8993 8.53333 10.9404C8.53333 6.98152 6.6592 3.88086 4.26667 3.88086C1.87413 3.88086 0 6.98152 0 10.9404ZM1.06667 10.9404C1.06667 7.66277 2.53227 4.88937 4.26667 4.88937C6.00107 4.88937 7.46667 7.66024 7.46667 10.9404C7.46667 14.2206 6.00107 16.9915 4.26667 16.9915C2.53227 16.9915 1.06667 14.2181 1.06667 10.9404Z" fill="#B6B6B6"/>
<path d="M20.2667 8.92343H10.6667C10.3721 8.92343 10.1334 8.69766 10.1334 8.41917C10.1334 8.14068 10.3721 7.91492 10.6667 7.91492H20.2667C20.5612 7.91492 20.8 8.14068 20.8 8.41917C20.8 8.69766 20.5612 8.92343 20.2667 8.92343Z" fill="#B6B6B6"/>
<path d="M28.2667 13.966H19.2C18.9055 13.966 18.6667 13.7402 18.6667 13.4617C18.6667 13.1832 18.9055 12.9575 19.2 12.9575H28.2667C28.5612 12.9575 28.8 13.1832 28.8 13.4617C28.8 13.7402 28.5612 13.966 28.2667 13.966Z" fill="#B6B6B6"/>
<path d="M16 13.966H13.8666C13.5721 13.966 13.3333 13.7402 13.3333 13.4617C13.3333 13.1832 13.5721 12.9575 13.8666 12.9575H16C16.2945 12.9575 16.5333 13.1832 16.5333 13.4617C16.5333 13.7402 16.2945 13.966 16 13.966Z" fill="#B6B6B6"/>
<path d="M4.2667 15.983C2.8011 15.983 2.13336 13.3689 2.13336 10.9404C2.13336 8.51194 2.8011 5.89789 4.2667 5.89789C4.68856 5.89789 5.29123 6.12783 5.7675 7.22307C5.84518 7.39057 5.82084 7.5847 5.70391 7.73039C5.58697 7.87609 5.39576 7.95049 5.20423 7.92483C5.01271 7.89917 4.85089 7.77748 4.78136 7.60681C4.52963 7.02843 4.30083 6.9064 4.2667 6.9064C3.99256 6.9064 3.20003 8.29309 3.20003 10.9404C3.20003 13.5878 3.99256 14.9745 4.2667 14.9745C4.54083 14.9745 5.33336 13.5878 5.33336 10.9404C5.33336 10.6619 5.57214 10.4362 5.8667 10.4362C6.16125 10.4362 6.40003 10.6619 6.40003 10.9404C6.40003 13.3689 5.7323 15.983 4.2667 15.983Z" fill="#B6B6B6"/>
</svg>
