<svg xmlns="http://www.w3.org/2000/svg" width="91" height="39.2" viewBox="10163 -2428 130 56"><g data-name="CompositeLayer"><g data-name="Rectangle 132"><path d="M10177-2428h102a14 14 0 0 1 14 14v28a14 14 0 0 1-14 14h-102a14 14 0 0 1-14-14v-28a14 14 0 0 1 14-14z" fill="#fff" fill-rule="evenodd"></path><path d="M10177-2428h102a14 14 0 0 1 14 14v28a14 14 0 0 1-14 14h-102a14 14 0 0 1-14-14v-28a14 14 0 0 1 14-14z" fill="transparent"></path></g><path d="M10201.113-2392v-13.387h2.802v6.123h.065l4.908-6.123h3.117l-4.797 5.909 5.14 7.478h-3.349l-3.832-5.65-1.252 1.549v4.101h-2.802Zm11.411-4.258v-2.366h6.012v2.366h-6.012Zm8.313 4.258v-13.387h2.449l6.049 8.702h.056v-8.702h2.792V-2392h-2.431l-6.067-8.767h-.056v8.767h-2.792Zm13.582 0v-13.387h8.869v2.31h-6.067v3.21h5.724v2.189h-5.724v3.368h6.067v2.31h-8.869Zm14.092 0v-11.077h-3.868v-2.31h10.548v2.31h-3.878V-2392h-2.802Z" fill="#0a2fb1" fill-rule="evenodd" data-name="Path 162"></path></g></svg>