<svg width="43" height="37" viewBox="0 0 43 37" fill="none" xmlns="http://www.w3.org/2000/svg">
<path d="M37.8182 10.6667H20.3637C19.0782 10.6682 17.8459 11.1795 16.937 12.0885C16.028 12.9974 15.5167 14.2297 15.5152 15.5152V27.1515C15.5167 28.437 16.028 29.6693 16.937 30.5782C17.8459 31.4872 19.0782 31.9985 20.3637 32H30.144L34.3651 36.2221C34.5685 36.4256 34.8278 36.5643 35.11 36.6204C35.3923 36.6766 35.6848 36.6478 35.9507 36.5377C36.2165 36.4275 36.4438 36.241 36.6036 36.0017C36.7634 35.7624 36.8486 35.481 36.8485 35.1932V32H37.8182C39.1036 31.9985 40.336 31.4872 41.2449 30.5782C42.1538 29.6693 42.6652 28.437 42.6667 27.1515V15.5152C42.6652 14.2297 42.1538 12.9974 41.2449 12.0885C40.336 11.1795 39.1036 10.6682 37.8182 10.6667ZM33.9394 19.8788H33.3974C33.1732 21.881 32.2612 23.7434 30.817 25.1481C31.6503 25.5068 32.5474 25.6934 33.4546 25.697C33.7154 25.6956 33.9665 25.7962 34.1542 25.9774C34.3419 26.1586 34.4513 26.4059 34.4592 26.6667C34.4631 26.7922 34.4418 26.9173 34.3965 27.0344C34.3513 27.1516 34.2831 27.2586 34.1959 27.3489C34.1087 27.4393 34.0042 27.5113 33.8887 27.5607C33.7732 27.6101 33.649 27.6358 33.5234 27.6364C31.9733 27.6321 30.4515 27.2208 29.1103 26.4436C27.7814 27.2241 26.2684 27.6358 24.7273 27.6364C24.4664 27.6378 24.2154 27.5371 24.0277 27.356C23.84 27.1748 23.7305 26.9274 23.7227 26.6667C23.7188 26.5411 23.7401 26.4161 23.7853 26.2989C23.8305 26.1817 23.8988 26.0748 23.986 25.9844C24.0732 25.894 24.1776 25.822 24.2931 25.7727C24.4086 25.7233 24.5328 25.6976 24.6584 25.697C25.5954 25.6981 26.5228 25.5087 27.3843 25.1404C26.6324 24.4254 26.0164 23.58 25.5661 22.6453C25.5067 22.5298 25.4712 22.4035 25.4617 22.2739C25.4521 22.1444 25.4686 22.0143 25.5103 21.8912C25.552 21.7682 25.618 21.6548 25.7043 21.5578C25.7907 21.4607 25.8956 21.382 26.013 21.3264C26.1303 21.2707 26.2577 21.2391 26.3875 21.2336C26.5172 21.2281 26.6468 21.2487 26.7685 21.2942C26.8901 21.3397 27.0014 21.4092 27.0957 21.4985C27.19 21.5879 27.2654 21.6953 27.3174 21.8143C27.7357 22.6929 28.3386 23.4708 29.0851 24.095C30.3623 23.0278 31.2002 21.5262 31.4376 19.8788H24.2424C23.9853 19.8788 23.7386 19.7766 23.5568 19.5948C23.3749 19.4129 23.2727 19.1663 23.2727 18.9091C23.2727 18.6519 23.3749 18.4053 23.5568 18.2234C23.7386 18.0416 23.9853 17.9394 24.2424 17.9394H28.1212V16C28.1212 15.7428 28.2234 15.4962 28.4053 15.3143C28.5871 15.1325 28.8338 15.0303 29.0909 15.0303C29.3481 15.0303 29.5948 15.1325 29.7766 15.3143C29.9585 15.4962 30.0606 15.7428 30.0606 16V17.9394H33.9394C34.1966 17.9394 34.4432 18.0416 34.6251 18.2234C34.807 18.4053 34.9091 18.6519 34.9091 18.9091C34.9091 19.1663 34.807 19.4129 34.6251 19.5948C34.4432 19.7766 34.1966 19.8788 33.9394 19.8788Z" fill="#302E2C"/>
<path d="M13.5758 8.16194L11.9961 11.6364H14.8015C14.8713 11.5394 14.9459 11.4424 15.0216 11.3455L13.5758 8.16194Z" fill="#302E2C"/>
<path d="M22.303 0H4.84849C3.56306 0.00153974 2.33072 0.512855 1.42179 1.42179C0.512855 2.33072 0.00153974 3.56306 0 4.84849V16.4849C0.00153974 17.7703 0.512855 19.0026 1.42179 19.9116C2.33072 20.8205 3.56306 21.3318 4.84849 21.3333H5.81818V24.5266C5.81805 24.8143 5.90329 25.0957 6.06311 25.335C6.22293 25.5743 6.45015 25.7609 6.71601 25.871C6.98187 25.9811 7.27444 26.01 7.55668 25.9538C7.83892 25.8976 8.09816 25.759 8.30158 25.5554L12.5227 21.3333H13.5758V15.5152C13.5777 14.858 13.6757 14.2046 13.8667 13.5758H11.1147L9.6097 16.8863C9.49961 17.1146 9.30455 17.2906 9.06626 17.3769C8.82797 17.4631 8.5654 17.4526 8.33474 17.3477C8.10407 17.2427 7.92366 17.0517 7.8321 16.8154C7.74054 16.5791 7.74512 16.3164 7.84485 16.0834L12.6933 5.41673C12.7705 5.24743 12.8947 5.1039 13.0511 5.00324C13.2076 4.90259 13.3897 4.84908 13.5758 4.84908C13.7618 4.84908 13.9439 4.90259 14.1004 5.00324C14.2568 5.1039 14.3811 5.24743 14.4582 5.41673L16.511 9.93261C17.642 9.14674 18.9865 8.7261 20.3636 8.72728H27.1515V4.84849C27.15 3.56306 26.6387 2.33072 25.7297 1.42179C24.8208 0.512855 23.5885 0.00153974 22.303 0Z" fill="#302E2C"/>
</svg>
