<svg width="334" height="334" viewBox="0 0 334 334" fill="none" xmlns="http://www.w3.org/2000/svg">
<g clip-path="url(#clip0_12_4)">
<path opacity="0.1" d="M167 334C259.232 334 334 259.232 334 167C334 74.7684 259.232 0 167 0C74.7684 0 0 74.7684 0 167C0 259.232 74.7684 334 167 334Z" fill="#7DDE7A"/>
<path opacity="0.3" d="M167 250.5C213.116 250.5 250.5 213.116 250.5 167C250.5 120.884 213.116 83.5 167 83.5C120.884 83.5 83.5 120.884 83.5 167C83.5 213.116 120.884 250.5 167 250.5Z" fill="#7DDE7A"/>
<path d="M167 208.75C157.341 208.75 147.981 205.401 140.514 199.274C133.047 193.146 127.936 184.619 126.052 175.146C124.167 165.672 125.626 155.838 130.179 147.32C134.732 138.801 142.098 132.125 151.022 128.428C159.946 124.732 169.875 124.244 179.118 127.048C188.361 129.851 196.347 135.773 201.713 143.805C207.079 151.836 209.495 161.479 208.548 171.092C207.602 180.704 203.351 189.691 196.521 196.521C188.692 204.351 178.073 208.75 167 208.75ZM158.65 187.875L196.225 152.388L189.962 146.125L158.65 175.35L144.037 160.738L137.775 167L158.65 187.875Z" fill="#32AC2E"/>
</g>
<defs>
<clipPath id="clip0_12_4">
<rect width="334" height="334" fill="white"/>
</clipPath>
</defs>
</svg>
