<svg xmlns="http://www.w3.org/2000/svg" width="91" height="39.2" viewBox="10305 -2428 130 56"><g data-name="CompositeLayer"><path d="M10305-2414c0-7.732 6.268-14 14-14h102c7.732 0 14 6.268 14 14v28c0 7.732-6.268 14-14 14h-102c-7.732 0-14-6.268-14-14v-28Z" fill="#f4cf47" fill-rule="evenodd" data-name="Path 163"></path><path d="m10366.093-2421.768-2.3 13.518h3.673l2.3-13.518h-3.673Z" fill="#fff" fill-rule="evenodd" data-name="Path 164"></path><path d="m10360.717-2421.752-3.6 9.219-.384-1.392a14.447 14.447 0 0 0-5.088-5.6l3.29 11.273 3.886-.007 5.784-13.492-3.888-.001Z" fill="#fff" fill-rule="evenodd" data-name="Path 165"></path><path d="M10355.343-2420.785a1.48 1.48 0 0 0-1.6-1.1h-5.694l-.047.269c4.432 1.079 7.364 3.677 8.581 6.8l-1.24-5.969Z" fill="#2752eb" fill-rule="evenodd" data-name="Path 166"></path><path d="M10377.212-2419.177a6.766 6.766 0 0 1 2.749.517l.331.156.5-2.93a9.46 9.46 0 0 0-3.29-.568c-3.63 0-6.188 1.833-6.208 4.461-.024 1.942 1.822 3.026 3.216 3.673 1.432.663 1.911 1.085 1.9 1.677-.011.9-1.141 1.32-2.2 1.32a7.693 7.693 0 0 1-3.458-.708l-.473-.216-.517 3.025c1.31.484 2.696.728 4.093.72 3.861 0 6.37-1.812 6.4-4.619.016-1.536-.963-2.708-3.086-3.67-1.285-.627-2.071-1.044-2.063-1.677.001-.56.668-1.161 2.106-1.161Z" fill="#fff" fill-rule="evenodd" data-name="Path 167"></path><path d="M10393.188-2408.243h-3.408c0-.01-.34-1.558-.448-2.025H10384.629a392.07 392.07 0 0 0-.772 2.031H10380l5.454-12.394c.147-.379.422-.694.777-.892.358-.17.752-.249 1.147-.23h2.838l2.972 13.51Zm-6.039-8.575c-.012.03-1.165 3.014-1.463 3.776h3.051l-.851-3.9-.247-1.167c-.095.254-.221.583-.322.847-.108.282-.169.441-.168.444Z" fill="#fff" fill-rule="evenodd" data-name="Path 168"></path><path d="M10362.105-2403.888a12.801 12.801 0 0 0 .082 25.6 12.635 12.635 0 0 0 8.562-3.335c.464-.425.896-.883 1.292-1.371h-2.606c-.345-.419-.662-.86-.949-1.32h4.5c.275-.441.523-.899.742-1.37h-5.979a12.525 12.525 0 0 1-.532-1.345h7.043c.435-1.309.657-2.68.655-4.06 0-.922-.098-1.842-.293-2.743h-7.779c.097-.454.218-.903.363-1.345h7.047c-.157-.467-.34-.924-.549-1.37h-5.956c.215-.463.459-.912.73-1.345h4.493a12.658 12.658 0 0 0-.987-1.37h-2.505a11.71 11.71 0 0 1 1.276-1.292 12.629 12.629 0 0 0-8.563-3.337l-.087.003Z" fill="#931b1d" fill-rule="evenodd" data-name="Path 169"></path><path d="M10391.982-2391.082a12.72 12.72 0 0 1-7.827 11.861 12.735 12.735 0 0 1-9.792.002 12.737 12.737 0 0 1-4.143-2.786 12.736 12.736 0 0 1-3.689-9.071v-.006a12.72 12.72 0 0 1 7.826-11.861 12.717 12.717 0 0 1 9.792-.003 12.725 12.725 0 0 1 7.833 11.857v.007Z" fill="#f16622" fill-rule="evenodd" data-name="Path 170"></path><path d="M10391.982-2390.939a12.72 12.72 0 0 1-7.826 11.861 12.718 12.718 0 0 1-9.792.003 12.725 12.725 0 0 1-7.833-11.857v-.007a12.72 12.72 0 0 1 7.826-11.861 12.717 12.717 0 0 1 9.792-.003 12.725 12.725 0 0 1 7.833 11.857v.007Z" fill="#f7981d" fill-rule="evenodd" data-name="Path 171"></path><path d="M10362.105-2403.743a12.803 12.803 0 1 0 .082 25.606 12.634 12.634 0 0 0 8.562-3.336c.464-.424.896-.882 1.292-1.371h-2.606a12.387 12.387 0 0 1-.949-1.317h4.5c.275-.442.522-.9.742-1.371h-5.979c-.203-.437-.38-.886-.532-1.344h7.043a12.963 12.963 0 0 0 .362-6.803h-7.779c.097-.454.218-.903.363-1.344h7.047c-.157-.468-.34-.926-.549-1.372h-5.956c.216-.463.459-.911.73-1.344h4.493a13.048 13.048 0 0 0-.987-1.371h-2.505c.392-.463.818-.895 1.276-1.293a12.633 12.633 0 0 0-8.563-3.337l-.087-.003Z" fill="#cb2026" fill-rule="evenodd" data-name="Path 172"></path><path d="m10366.762-2387.681.17-1.158c-.093 0-.229.04-.349.04-.471 0-.524-.252-.493-.438l.381-2.365h.717l.173-1.282h-.675l.138-.8h-1.354c-.029.03-.8 4.483-.8 5.024a1.004 1.004 0 0 0 .26.839 1.012 1.012 0 0 0 .819.317 3.526 3.526 0 0 0 1.013-.177Z" fill="#fff" fill-rule="evenodd" data-name="Path 173"></path><path d="M10369.532-2387.505a2.566 2.566 0 0 1-1.574-.47 2.296 2.296 0 0 1-.766-1.914 4.035 4.035 0 0 1 .179-1.2c.11-.359.279-.697.5-1a2.105 2.105 0 0 1 2.621-.761c.234.108.437.271.594.475.277.388.419.856.406 1.332a9.832 9.832 0 0 1-.177 1.244h-2.751a.929.929 0 0 0 .157.718 1.275 1.275 0 0 0 1.043.374 4.226 4.226 0 0 0 1.438-.337l-.239 1.315c-.457.17-.944.246-1.431.224Zm.036-4.31a.751.751 0 0 0-.564.229 1.24 1.24 0 0 0-.317.705h1.505v-.031a.993.993 0 0 0-.166-.729.603.603 0 0 0-.458-.174Z" fill="#fff" fill-rule="evenodd" data-name="Path 174"></path><path d="m10378.147-2387.68.243-1.487c-.35.18-.73.294-1.121.337-.961 0-1.346-.741-1.346-1.532 0-1.61.827-2.5 1.748-2.5.443.013.873.148 1.244.391l.221-1.444a4.821 4.821 0 0 0-1.526-.335c-1.564 0-3.087 1.364-3.087 3.93 0 1.7.822 2.823 2.439 2.823.4-.023.797-.084 1.185-.183Z" fill="#fff" fill-rule="evenodd" data-name="Path 175"></path><path d="M10358.101-2387.514a1.351 1.351 0 0 1-.842-.287 1.451 1.451 0 0 1-.466-1.179 2.068 2.068 0 0 1 .211-.956c.129-.25.318-.465.551-.624a2.92 2.92 0 0 1 1.638-.441c.183 0 .578.033.582.034a.887.887 0 0 0 .047-.347.384.384 0 0 0-.247-.39 1.745 1.745 0 0 0-.626-.08 4.335 4.335 0 0 0-1.476.24l.196-1.17a4.742 4.742 0 0 1 1.641-.3c.383-.014.763.063 1.11.225a1.465 1.465 0 0 1 .751 1.419l-.532 3.756h-1.193l.047-.523s-.012.01-.028.028a1.694 1.694 0 0 1-.409.345 1.82 1.82 0 0 1-.955.25Zm1.205-2.475c-.346-.03-.69.066-.97.271a.711.711 0 0 0-.225.55.504.504 0 0 0 .326.485.506.506 0 0 0 .204.03.8.8 0 0 0 .334-.07.805.805 0 0 0 .272-.205c.143-.169.245-.368.3-.582a1.41 1.41 0 0 0 .058-.447l-.03-.007a.903.903 0 0 0-.269-.025Z" fill="#fff" fill-rule="evenodd" data-name="Path 176"></path><path d="M10362.438-2387.539c.3 0 2.049.079 2.049-1.733 0-1.693-1.614-1.359-1.614-2.039 0-.338.263-.446.744-.446.191 0 .926.062.926.062l.171-1.2a6.313 6.313 0 0 0-1.25-.106c-1 0-2.02.4-2.02 1.779 0 1.562 1.7 1.4 1.7 2.062 0 .439-.474.475-.84.475a4.374 4.374 0 0 1-1.2-.208l-.181 1.191a4.238 4.238 0 0 0 1.515.163Z" fill="#fff" fill-rule="evenodd" data-name="Path 177"></path><path d="M10387.174-2387.531a1.466 1.466 0 0 1-1.263-.686 2.756 2.756 0 0 1-.417-1.525 4.24 4.24 0 0 1 .181-1.235c.108-.368.274-.716.491-1.032a2.5 2.5 0 0 1 .728-.706c.263-.169.568-.259.88-.262.348.009.683.134.953.354.133.102.252.221.355.354l.288-1.828h1.36l-1.036 6.482h-1.318l.059-.482a1.685 1.685 0 0 1-1.261.566Zm.828-4.137a.915.915 0 0 0-.442.14.92.92 0 0 0-.314.341 2.45 2.45 0 0 0-.31 1.273 1.44 1.44 0 0 0 .175.771.605.605 0 0 0 .541.287.925.925 0 0 0 .82-.57c.177-.343.269-.724.269-1.11 0-.772-.234-1.132-.739-1.132Z" fill="#fff" fill-rule="evenodd" data-name="Path 178"></path><path d="m10351.974-2387.609.826-4.895.12 4.895h.934l1.741-4.895-.771 4.895h1.387l1.069-6.49h-2.145l-1.336 3.981-.069-3.981h-1.979l-1.084 6.49h1.307Z" fill="#fff" fill-rule="evenodd" data-name="Path 179"></path><path d="M10372.849-2387.6c.394-2.255.467-4.088 1.409-3.754.083-.55.252-1.083.5-1.58a1.432 1.432 0 0 0-.261-.018c-.605 0-1.055.834-1.055.834l.12-.766h-1.262l-.844 5.284h1.393Z" fill="#fff" fill-rule="evenodd" data-name="Path 180"></path><path d="M10380.064-2387.514a1.351 1.351 0 0 1-.842-.287 1.451 1.451 0 0 1-.466-1.179 2.08 2.08 0 0 1 .21-.956c.129-.25.318-.465.551-.624a2.917 2.917 0 0 1 1.639-.441c.185 0 .58.033.584.034a.886.886 0 0 0 .046-.347.383.383 0 0 0-.248-.39 1.769 1.769 0 0 0-.626-.08 4.31 4.31 0 0 0-1.476.24l.197-1.17a4.732 4.732 0 0 1 1.64-.3c.383-.015.764.063 1.112.225a1.461 1.461 0 0 1 .75 1.419l-.532 3.756h-1.194l.047-.523a.146.146 0 0 0-.027.028 1.707 1.707 0 0 1-.408.345c-.29.17-.621.257-.957.25Zm1.205-2.475a1.426 1.426 0 0 0-.968.271.712.712 0 0 0-.225.55.504.504 0 0 0 .325.484.49.49 0 0 0 .204.031.784.784 0 0 0 .607-.275c.143-.169.245-.368.3-.582.043-.145.063-.297.058-.448l-.032-.006a.902.902 0 0 0-.269-.025Z" fill="#fff" fill-rule="evenodd" data-name="Path 181"></path><path d="M10384.224-2387.6c.395-2.255.468-4.088 1.409-3.754.082-.55.251-1.083.5-1.58a1.437 1.437 0 0 0-.262-.018c-.607 0-1.056.834-1.056.834l.121-.766h-1.263l-.844 5.284h1.395Z" fill="#fff" fill-rule="evenodd" data-name="Path 182"></path></g></svg>