<svg xmlns="http://www.w3.org/2000/svg" width="24" height="24" viewBox="0 0 24 24" fill="none">
<path d="M10.6612 23.9969C10.6596 23.9971 10.6581 23.9973 10.6565 23.9976C10.6589 23.9973 10.6613 23.9969 10.6612 23.9969Z" fill="#9E9E9E"/>
<path d="M10.6565 23.9976C10.6541 23.9979 10.6518 23.9982 10.6519 23.9982C10.6535 23.998 10.655 23.9978 10.6565 23.9976Z" fill="#9E9E9E"/>
<path d="M10.9694 21.4361V6.05626C10.9694 5.86206 10.812 5.70465 10.6178 5.70465C10.4236 5.70465 10.2662 5.86201 10.2662 6.05626V10.1363C9.47069 5.96181 9.17791 1.91775 9.10333 0.70322H10.2662V4.64987C10.2662 4.84407 10.4235 5.00148 10.6178 5.00148C10.812 5.00148 10.9694 4.84412 10.9694 4.64987V0.35161C10.9694 0.157407 10.812 0 10.6178 0H3.43936C3.24516 0 3.08775 0.15736 3.08775 0.35161V16.7693C3.08775 16.9635 3.24511 17.1209 3.43936 17.1209C3.63361 17.1209 3.79097 16.9636 3.79097 16.7693V5.5194C4.49443 8.03186 5.38004 13.4493 4.33988 23.2967H3.79097V18.1757C3.79097 17.9816 3.63361 17.8241 3.43936 17.8241C3.24511 17.8241 3.08775 17.9815 3.08775 18.1757V23.6483C3.08775 23.8425 3.24511 23.9999 3.43936 23.9999H4.65544C4.65573 23.9999 4.65601 24 4.65629 24C4.65662 24 4.65694 23.9999 4.65727 23.9999H6.03756C6.03774 23.9999 10.661 23.997 10.6612 23.997C10.6687 23.996 10.6763 23.9949 10.6839 23.9935C10.689 23.9925 10.694 23.9913 10.6991 23.9901C10.7043 23.9888 10.7096 23.9875 10.7148 23.986C10.7208 23.9843 10.7268 23.9823 10.7328 23.9803C10.735 23.9795 10.7374 23.979 10.7397 23.9781C10.7415 23.9774 10.7431 23.9766 10.7448 23.9759C10.752 23.9731 10.7591 23.97 10.766 23.9668C10.77 23.9649 10.774 23.9631 10.7779 23.9611C10.7838 23.958 10.7896 23.9548 10.7953 23.9514C10.8 23.9487 10.8046 23.946 10.8091 23.9431C10.8137 23.9401 10.8182 23.9369 10.8226 23.9337C10.8277 23.9301 10.8327 23.9265 10.8375 23.9226C10.8413 23.9196 10.8448 23.9164 10.8484 23.9133C10.8535 23.9089 10.8584 23.9046 10.8632 23.8999C10.8665 23.8966 10.8697 23.8932 10.8729 23.8898C10.8774 23.8851 10.8818 23.8804 10.886 23.8755C10.8894 23.8715 10.8925 23.8673 10.8957 23.8632C10.8993 23.8586 10.9029 23.854 10.9061 23.8493C10.9096 23.8443 10.9128 23.8391 10.916 23.834C10.9187 23.8298 10.9213 23.8256 10.9238 23.8213C10.9271 23.8155 10.9301 23.8095 10.9331 23.8034C10.935 23.7994 10.937 23.7955 10.9388 23.7915C10.9416 23.7851 10.9441 23.7787 10.9466 23.7722C10.9481 23.768 10.9498 23.7638 10.9512 23.7596C10.9533 23.7534 10.955 23.7472 10.9567 23.7409C10.9581 23.7359 10.9594 23.7309 10.9606 23.7259C10.9618 23.7203 10.9629 23.7147 10.9638 23.709C10.9649 23.7029 10.9659 23.6968 10.9667 23.6907C10.9672 23.6858 10.9676 23.681 10.9681 23.6761C10.9686 23.669 10.969 23.6618 10.9691 23.6547C10.9692 23.6526 10.9695 23.6505 10.9695 23.6483C10.9694 23.6473 10.9694 21.4372 10.9694 21.4361ZM5.73348 23.2967H5.04685C5.50084 18.9602 5.8404 12.8912 5.0146 7.84572C4.56887 5.12218 3.96577 3.81085 3.79088 3.47213V0.70322H4.13701C4.54655 1.24692 5.32285 2.73694 5.86824 5.27715C6.30268 7.30056 6.53621 9.67629 6.56232 12.3383C6.5941 15.5867 6.3152 19.2722 5.73348 23.2967ZM8.3072 23.2967C8.02872 21.9589 7.79218 19.9374 8.14103 19.1157C8.31812 19.3337 8.69228 19.9167 9.3595 21.4595C9.66442 22.1645 9.93808 22.8565 10.108 23.2967H8.3072ZM10.2662 21.7981C10.1656 21.5554 10.0586 21.3024 9.94797 21.0493C8.8795 18.6043 8.46353 18.3511 8.15758 18.3057C7.97406 18.2784 7.80189 18.3512 7.68508 18.5053C6.93493 19.4946 7.37307 22.2028 7.59025 23.2967H6.44424C7.02653 19.2389 7.30248 15.5218 7.26465 12.2424C7.23329 9.52314 6.9872 7.09497 6.53331 5.02529C6.03226 2.74088 5.38726 1.39266 4.97434 0.703173H6.85717C6.98453 1.74858 7.42398 5.29764 7.98794 9.21049C8.88034 15.4027 9.6467 19.5346 10.2662 21.4948V21.7981ZM10.2662 18.5662C9.08256 12.8819 7.82378 2.81251 7.56564 0.70322H8.39884C8.48786 2.17158 8.91991 8.19002 10.2661 13.3694V18.5662H10.2662Z" fill="#9E9E9E"/>
<path d="M10.6179 24C10.6292 24 10.6405 23.9993 10.6519 23.9982L10.6166 23.9999C10.6171 23.9999 10.6174 24 10.6179 24Z" fill="#9E9E9E"/>
<path d="M20.5606 0H19.4744C19.4735 0 19.4726 0 19.4717 0H15.6073C15.6068 0 15.6063 0 15.6058 0H13.3822C13.188 0 13.0306 0.15736 13.0306 0.35161V4.53334C13.0306 4.53451 13.0306 4.53568 13.0306 4.5369V9.28718C13.0306 9.28788 13.0306 9.28853 13.0306 9.28924V23.6483C13.0306 23.8425 13.188 24 13.3822 24H20.5606C20.7548 24 20.9122 23.8426 20.9122 23.6483V18.6518C20.9122 18.4576 20.7549 18.3002 20.5606 18.3002C20.3664 18.3002 20.209 18.4575 20.209 18.6518V23.2967H19.1738C19.1273 19.2516 19.2321 13.5727 19.9579 8.81299C20.0416 8.26356 20.1265 7.77494 20.2091 7.34336V17.2454C20.2091 17.4396 20.3664 17.5971 20.5607 17.5971C20.7549 17.5971 20.9123 17.4397 20.9123 17.2454V4.53141C20.9123 4.53081 20.9123 4.53015 20.9123 4.52954V0.35161C20.9122 0.15736 20.7549 0 20.5606 0ZM15.7273 7.01012C15.8698 7.01012 16.0035 6.94234 16.0943 6.82098C16.2149 6.65978 16.4661 6.32425 16.2388 3.22037C16.1649 2.21068 16.0631 1.22846 16.0055 0.70322H16.6664C16.8362 1.9651 17.4033 6.93911 16.1989 9.51382C16.0049 9.92847 15.8583 10.0074 15.8169 10.0025C15.795 9.99991 15.2709 9.90935 14.4576 7.28964C14.0595 6.00714 13.7812 4.72163 13.7338 4.49842V3.53794C13.8175 3.75549 13.9054 3.97984 13.9955 4.20418C15.0012 6.70787 15.3552 6.95753 15.6567 7.00459C15.6803 7.0083 15.7039 7.01012 15.7273 7.01012ZM13.7338 0.70322H15.298C15.3518 1.18871 15.4562 2.17974 15.5329 3.20855C15.6524 4.8152 15.6393 5.62192 15.6019 6.02415C15.1793 5.30607 14.4268 3.49848 13.7338 1.49986V0.70322H13.7338ZM14.9574 23.2967H13.7338V11.8905C14.3604 14.4972 15.1608 18.8217 14.9574 23.2967ZM15.6613 23.2967C15.826 19.5806 15.3099 16.006 14.8385 13.6296C14.3557 11.196 13.8372 9.5448 13.7338 9.22558V7.32761H13.7338C13.7506 7.38287 13.7675 7.43819 13.7846 7.49355C14.231 8.93252 14.8561 10.5976 15.7348 10.7009C15.7661 10.7046 15.7969 10.7064 15.8275 10.7064C16.219 10.7064 16.5578 10.4059 16.8358 9.81175C17.4572 8.48336 17.7265 6.47411 17.6362 3.83987C17.589 2.46441 17.4546 1.293 17.3765 0.70322H19.046C18.8331 1.79602 18.2476 4.89934 17.7043 8.66411C17.0962 12.8783 16.4217 18.7851 16.6036 23.2967H15.6613V23.2967ZM20.209 4.47006C20.1006 4.76298 19.6765 6.01421 19.2712 8.65075C18.5315 13.4634 18.4237 19.2052 18.4705 23.2967H17.3072C16.9781 15.3249 19.3638 2.73952 19.7626 0.70322H20.209V4.47006H20.209Z" fill="#9E9E9E"/>
</svg>